<svg width="28" height="30" viewBox="0 0 28 30" fill="none" xmlns="http://www.w3.org/2000/svg">
<g filter="url(#filter0_d_1_2884)">
<path fill-rule="evenodd" clip-rule="evenodd" d="M23 19.5C23 20.3284 22.3284 21 21.5 21L20.5 21C19.6716 21 19 20.3284 19 19.5L19 4.5C19 3.67157 19.6716 3 20.5 3L21.5 3C22.3284 3 23 3.67157 23 4.5L23 19.5Z" stroke="#797C7B" stroke-width="1.5" stroke-linecap="round" stroke-linejoin="round"/>
<path fill-rule="evenodd" clip-rule="evenodd" d="M16 19.5002C16 20.3286 15.3284 21.0002 14.5 21.0002L13.5 21.0002C12.6716 21.0002 12 20.3286 12 19.5002L12 10.1842C12 9.35577 12.6716 8.6842 13.5 8.6842L14.5 8.6842C15.3284 8.6842 16 9.35577 16 10.1842L16 19.5002Z" stroke="#797C7B" stroke-width="1.5" stroke-linecap="round" stroke-linejoin="round"/>
<path fill-rule="evenodd" clip-rule="evenodd" d="M9 19.5004C9 20.3288 8.32843 21.0004 7.5 21.0004L6.5 21.0004C5.67157 21.0004 5 20.3288 5 19.5004L5 15.8684C5 15.04 5.67157 14.3684 6.5 14.3684L7.5 14.3684C8.32843 14.3684 9 15.04 9 15.8684L9 19.5004Z" stroke="#797C7B" stroke-width="1.5" stroke-linecap="round" stroke-linejoin="round"/>
</g>
<defs>
<filter id="filter0_d_1_2884" x="-2" y="0" width="32" height="32" filterUnits="userSpaceOnUse" color-interpolation-filters="sRGB">
<feFlood flood-opacity="0" result="BackgroundImageFix"/>
<feColorMatrix in="SourceAlpha" type="matrix" values="0 0 0 0 0 0 0 0 0 0 0 0 0 0 0 0 0 0 127 0" result="hardAlpha"/>
<feOffset dy="4"/>
<feGaussianBlur stdDeviation="2"/>
<feComposite in2="hardAlpha" operator="out"/>
<feColorMatrix type="matrix" values="0 0 0 0 0 0 0 0 0 0 0 0 0 0 0 0 0 0 0.25 0"/>
<feBlend mode="normal" in2="BackgroundImageFix" result="effect1_dropShadow_1_2884"/>
<feBlend mode="normal" in="SourceGraphic" in2="effect1_dropShadow_1_2884" result="shape"/>
</filter>
</defs>
</svg>
