<svg width="18" height="18" viewBox="0 0 18 18" fill="none" xmlns="http://www.w3.org/2000/svg">
<path d="M9 14.25V16.5" stroke="white" stroke-width="1.2" stroke-linecap="round" stroke-linejoin="round"/>
<path d="M6.75 16.5H11.25" stroke="white" stroke-width="1.2" stroke-linecap="round" stroke-linejoin="round"/>
<path d="M6.27002 3.27C6.74027 2.22825 7.78277 1.5 9.00002 1.5C10.6568 1.5 12 2.84325 12 4.5V9" stroke="white" stroke-width="1.2" stroke-linecap="round" stroke-linejoin="round"/>
<path d="M3.1875 3.1875L14.8125 14.8125" stroke="white" stroke-width="1.2" stroke-linecap="round" stroke-linejoin="round"/>
<path d="M6 6V9C6 10.6568 7.34325 12 9 12C9.82875 12 10.5787 11.664 11.121 11.121" stroke="white" stroke-width="1.2" stroke-linecap="round" stroke-linejoin="round"/>
<path d="M14.325 8.25V8.925C14.325 9.63525 14.1833 10.311 13.9313 10.9305" stroke="white" stroke-width="1.2" stroke-linecap="round" stroke-linejoin="round"/>
<path d="M3.67505 8.25V8.925C3.67505 11.8657 6.0593 14.25 9.00005 14.25C10.4513 14.25 11.7653 13.668 12.726 12.726" stroke="white" stroke-width="1.2" stroke-linecap="round" stroke-linejoin="round"/>
</svg>
